<!--! - Copyright (C) ICON plc - All Rights Reserved - Unauthorized copying of this file via any medium is strictly prohibited - Proprietary and confidential - - Created by Matt Coster <Matt.Coster [at] icon-plc.co.uk>, 12 June 2017--><svg baseProfile="full" width="220" height="120" viewBox="0 0 220 120" xmlns="http://www.w3.org/2000/svg" xmlns:xlink="http://www.w3.org/1999/xlink"><defs><path d="M0 10v40a10 10 0 0 0 10 10h60a10 10 0 0 0 10-10V10A10 10 0 0 0 70 0H10A10 10 0 0 0 0 10zm15 2h50v36H15V12z" id="b" fill-rule="evenodd"/><path d="M44 34v30a10 10 0 0 0 10 10h2V44a10 10 0 0 0-10-10h-2z" id="d" fill-rule="evenodd" transform="rotate(-35 50 54)"/><path d="M0 10v40a10 10 0 0 0 10 10h60a10 10 0 0 0 10-10V35a10 10 0 0 0-10-11H39a10 10 0 0 0-10 10v2h36v12H15V12h65v-2A10 10 0 0 0 70 0H10A10 10 0 0 0 0 10z" id="c" fill-rule="evenodd" transform="translate(82)"/><radialGradient id="a"><stop offset="0%" stop-color="#fff" stop-opacity=".933"/><stop offset="5%" stop-color="#fff"/><stop offset="30%" stop-color="#fff" stop-opacity=".467"/><stop offset="95%" stop-color="#fff" stop-opacity="0"/></radialGradient></defs><rect width="100%" height="100%" fill="url(#a)" clip-path="url(#qgLetters)" clip-rule="evenodd"><animate attributeType="XML" attributeName="width" from="0%" to="100%" dur="5s" repeatCount="1" keySplines="0 0 0.3 1"/><animate attributeType="XML" attributeName="height" from="0%" to="100%" dur="5s" repeatCount="1" keySplines="0 0 0.3 1"/><animate attributeType="XML" attributeName="x" from="50%" to="0%" dur="5s" repeatCount="1" keySplines="0 0 0.3 1"/><animate attributeType="XML" attributeName="y" from="50%" to="0%" dur="5s" repeatCount="1" keySplines="0 0 0.3 1"/><animate attributeType="XML" attributeName="width" values="100%; 90%; 100%" dur="10s" repeatCount="indefinite" keySplines="0.7 0 0.3 1; 0.7 0 0.3 1" begin="5s"/><animate attributeType="XML" attributeName="height" values="100%; 90%; 100%" dur="10s" repeatCount="indefinite" keySplines="0.7 0 0.3 1; 0.7 0 0.3 1" begin="5s"/><animate attributeType="XML" attributeName="x" values="0%; 5%; 0%" dur="10s" repeatCount="indefinite" keySplines="0.7 0 0.3 1; 0.7 0 0.3 1" begin="5s"/><animate attributeType="XML" attributeName="y" values="0%; 5%; 0%" dur="10s" repeatCount="indefinite" keySplines="0.7 0 0.3 1; 0.7 0 0.3 1" begin="5s"/></rect><g transform="translate(31 30)"><use xlink:href="#b"/><use xlink:href="#c"/><use xlink:href="#d"/></g></svg>